<?xml version="1.0" encoding="UTF-8" standalone="no"?>
<svg
   xmlns:dc="http://purl.org/dc/elements/1.1/"
   xmlns:cc="http://creativecommons.org/ns#"
   xmlns:rdf="http://www.w3.org/1999/02/22-rdf-syntax-ns#"
   xmlns:svg="http://www.w3.org/2000/svg"
   xmlns="http://www.w3.org/2000/svg"
   xmlns:sodipodi="http://sodipodi.sourceforge.net/DTD/sodipodi-0.dtd"
   xmlns:inkscape="http://www.inkscape.org/namespaces/inkscape"
   width="82"
   height="82"
   viewBox="0 0 82 82"
   fill="none"
   version="1.1"
   id="svg4"
   sodipodi:docname="circlelogo.svg"
   inkscape:version="1.0.1 (3bc2e813f5, 2020-09-07)">
  <metadata
     id="metadata10">
    <rdf:RDF>
      <cc:Work
         rdf:about="">
        <dc:format>image/svg+xml</dc:format>
        <dc:type
           rdf:resource="http://purl.org/dc/dcmitype/StillImage" />
        <dc:title></dc:title>
      </cc:Work>
    </rdf:RDF>
  </metadata>
  <defs
     id="defs8">
    <linearGradient
       id="paint0_linear"
       x1="1.59395"
       y1="31.118999"
       x2="12.3951"
       y2="5.3226199"
       gradientUnits="userSpaceOnUse"
       gradientTransform="translate(15.565628,15.499739)">
      <stop
         stop-color="#110D2A"
         stop-opacity="0"
         id="stop18" />
      <stop
         offset="0.1101"
         stop-color="#14112F"
         stop-opacity="0.1101"
         id="stop20" />
      <stop
         offset="0.248"
         stop-color="#1E1C3F"
         stop-opacity="0.248"
         id="stop22" />
      <stop
         offset="0.4008"
         stop-color="#2F2E58"
         stop-opacity="0.4008"
         id="stop24" />
      <stop
         offset="0.5645"
         stop-color="#45477C"
         stop-opacity="0.5645"
         id="stop26" />
      <stop
         offset="0.7368"
         stop-color="#6367AA"
         stop-opacity="0.7368"
         id="stop28" />
      <stop
         offset="0.9136"
         stop-color="#868EE1"
         stop-opacity="0.9136"
         id="stop30" />
      <stop
         offset="1"
         stop-color="#99A3FF"
         id="stop32" />
    </linearGradient>
    <linearGradient
       id="paint1_linear"
       x1="53.6073"
       y1="36.898998"
       x2="15.4976"
       y2="47.843899"
       gradientUnits="userSpaceOnUse"
       gradientTransform="translate(15.565628,15.499739)">
      <stop
         stop-color="#110D2A"
         stop-opacity="0"
         id="stop35" />
      <stop
         offset="0.1101"
         stop-color="#14112F"
         stop-opacity="0.1101"
         id="stop37" />
      <stop
         offset="0.248"
         stop-color="#1E1C3F"
         stop-opacity="0.248"
         id="stop39" />
      <stop
         offset="0.4008"
         stop-color="#2F2E58"
         stop-opacity="0.4008"
         id="stop41" />
      <stop
         offset="0.5645"
         stop-color="#45477C"
         stop-opacity="0.5645"
         id="stop43" />
      <stop
         offset="0.7368"
         stop-color="#6367AA"
         stop-opacity="0.7368"
         id="stop45" />
      <stop
         offset="0.9136"
         stop-color="#868EE1"
         stop-opacity="0.9136"
         id="stop47" />
      <stop
         offset="1"
         stop-color="#99A3FF"
         id="stop49" />
    </linearGradient>
    <linearGradient
       id="paint2_linear"
       x1="31.7616"
       y1="2.56744"
       x2="47.636299"
       y2="25.0786"
       gradientUnits="userSpaceOnUse"
       gradientTransform="translate(15.565628,15.499739)">
      <stop
         stop-color="#110D2A"
         stop-opacity="0"
         id="stop52" />
      <stop
         offset="0.1101"
         stop-color="#14112F"
         stop-opacity="0.1101"
         id="stop54" />
      <stop
         offset="0.248"
         stop-color="#1E1C3F"
         stop-opacity="0.248"
         id="stop56" />
      <stop
         offset="0.4008"
         stop-color="#2F2E58"
         stop-opacity="0.4008"
         id="stop58" />
      <stop
         offset="0.5645"
         stop-color="#45477C"
         stop-opacity="0.5645"
         id="stop60" />
      <stop
         offset="0.7368"
         stop-color="#6367AA"
         stop-opacity="0.7368"
         id="stop62" />
      <stop
         offset="0.9136"
         stop-color="#868EE1"
         stop-opacity="0.9136"
         id="stop64" />
      <stop
         offset="1"
         stop-color="#99A3FF"
         id="stop66" />
    </linearGradient>
    <linearGradient
       id="paint3_linear"
       x1="-10.3402"
       y1="25.432199"
       x2="51.821999"
       y2="25.432199"
       gradientUnits="userSpaceOnUse"
       gradientTransform="translate(15.565628,15.499739)">
      <stop
         stop-color="#110D2A"
         stop-opacity="0"
         id="stop69" />
      <stop
         offset="0.1101"
         stop-color="#14112F"
         stop-opacity="0.1101"
         id="stop71" />
      <stop
         offset="0.248"
         stop-color="#1E1C3F"
         stop-opacity="0.248"
         id="stop73" />
      <stop
         offset="0.4008"
         stop-color="#2F2E58"
         stop-opacity="0.4008"
         id="stop75" />
      <stop
         offset="0.5645"
         stop-color="#45477C"
         stop-opacity="0.5645"
         id="stop77" />
      <stop
         offset="0.7368"
         stop-color="#6367AA"
         stop-opacity="0.7368"
         id="stop79" />
      <stop
         offset="0.9136"
         stop-color="#868EE1"
         stop-opacity="0.9136"
         id="stop81" />
      <stop
         offset="1"
         stop-color="#99A3FF"
         id="stop83" />
    </linearGradient>
  </defs>
  <sodipodi:namedview
     pagecolor="#ffffff"
     bordercolor="#666666"
     borderopacity="1"
     objecttolerance="10"
     gridtolerance="10"
     guidetolerance="10"
     inkscape:pageopacity="0"
     inkscape:pageshadow="2"
     inkscape:window-width="1200"
     inkscape:window-height="1312"
     id="namedview6"
     showgrid="false"
     showguides="true"
     inkscape:guide-bbox="true"
     inkscape:zoom="3.7942315"
     inkscape:cx="62.550333"
     inkscape:cy="85.373456"
     inkscape:window-x="3591"
     inkscape:window-y="0"
     inkscape:window-maximized="0"
     inkscape:current-layer="svg4">
    <sodipodi:guide
       position="41.023295,31.658523"
       orientation="1,0"
       id="guide104" />
    <sodipodi:guide
       position="19.614773,41.023295"
       orientation="0,-1"
       id="guide106" />
  </sodipodi:namedview>
  <circle
     cx="41"
     cy="41"
     r="41"
     fill="#1F1943"
     id="circle2" />
  <path
     d="m 17.009158,41.530539 c 0,-10.5577 6.95783,-19.53037 16.49957,-22.46793 l -0.4186,-1.39606 c -10.13361,3.1266 -17.5245,12.65179 -17.5245,23.86399 0,4.5372 1.227,8.7981 3.34899,12.4628 l 1.25588,-0.7271 c -2.00651,-3.4466 -3.16134,-7.4457 -3.16134,-11.7357 z"
     fill="url(#paint0_linear)"
     id="path2"
     style="fill:url(#paint0_linear)" />
  <path
     d="m 60.531628,53.280739 c -4.0419,7.024 -11.5627,11.7648 -20.195,11.7648 -6.135,0 -11.7215,-2.4141 -15.87888,-6.3405 l -0.9816,1.0616 c 4.43168,4.1591 10.35008,6.7331 16.87488,6.7331 9.152,0 17.1492,-5.0462 21.4365,-12.4919 z"
     fill="url(#paint1_linear)"
     id="path4"
     style="fill:url(#paint1_linear)" />
  <path
     d="m 63.678528,41.530539 c 0,1.8178 -0.2309,3.5774 -0.6207,5.2789 l 1.4003,0.3199 c 0.4186,-1.8033 0.6495,-3.6792 0.6495,-5.5988 0,-13.7716 -11.1152,-24.96922 -24.7854,-24.96922 v 1.45424 c 12.8907,0.01454 23.3563,10.55778 23.3563,23.51498 z"
     fill="url(#paint2_linear)"
     id="path6"
     style="fill:url(#paint2_linear)" />
  <path
     d="m 33.234428,21.171249 c 1.5547,0 2.8149,-1.26961 2.8149,-2.83575 0,-1.56615 -1.2602,-2.83576 -2.8149,-2.83576 -1.5546,0 -2.8149,1.26961 -2.8149,2.83576 0,1.56614 1.2603,2.83575 2.8149,2.83575 z"
     fill="#99a3ff"
     id="path8" />
  <path
     d="m 23.865928,62.122439 c 1.55462,0 2.8149,-1.2696 2.8149,-2.8357 0,-1.5662 -1.26028,-2.8358 -2.8149,-2.8358 -1.55462,0 -2.81489,1.2696 -2.81489,2.8358 0,1.5661 1.26027,2.8357 2.81489,2.8357 z"
     fill="#99a3ff"
     id="path10" />
  <path
     d="m 63.750728,49.819739 c 1.5546,0 2.8149,-1.2697 2.8149,-2.8358 0,-1.5662 -1.2603,-2.8358 -2.8149,-2.8358 -1.5546,0 -2.8149,1.2696 -2.8149,2.8358 0,1.5661 1.2603,2.8358 2.8149,2.8358 z"
     fill="#99a3ff"
     id="path12" />
  <path
     d="m 50.152628,30.187539 c 0.4908,-0.1891 0.9528,0.2908 0.7796,0.7853 -0.9095,2.4431 -2.7861,7.751 -2.7861,9.9615 0,2.2104 1.8766,7.5184 2.7861,9.9615 0.1876,0.4944 -0.2888,0.9598 -0.7796,0.7853 -2.4251,-0.9162 -7.694,-2.8067 -9.8881,-2.8067 -2.2087,0 -7.4631,1.8905 -9.8882,2.8067 -0.4908,0.189 -0.9528,-0.2909 -0.7796,-0.7853 0.9095,-2.4431 2.7861,-7.7511 2.7861,-9.9615 0,-2.225 -1.8766,-7.5184 -2.7861,-9.9615 -0.1876,-0.4945 0.2888,-0.9598 0.7796,-0.7853 2.4251,0.9161 7.694,2.8066 9.8882,2.8066 2.1941,0 7.463,-1.8905 9.8881,-2.8066 z"
     fill="url(#paint3_linear)"
     id="path14"
     style="fill:url(#paint3_linear)" />
  <path
     d="m 39.643728,26.290139 c 0.2166,-0.4799 0.8806,-0.4799 1.0971,0 1.0682,2.3704 3.4645,7.4602 5.0235,9.0308 1.559,1.5706 6.6114,3.9846 8.9643,5.0607 0.4764,0.2182 0.4764,0.8871 0,1.1053 -2.3529,1.0761 -7.4053,3.4901 -8.9643,5.0607 -1.559,1.5706 -3.9553,6.6604 -5.0235,9.0308 -0.2165,0.4799 -0.8805,0.4799 -1.0971,0 -1.0682,-2.3704 -3.4644,-7.4602 -5.0235,-9.0308 -1.559,-1.5706 -6.6113,-3.9846 -8.9643,-5.0607 -0.47636,-0.2182 -0.47636,-0.8871 0,-1.1053 2.353,-1.0761 7.4053,-3.4901 8.9643,-5.0607 1.5591,-1.5706 3.9553,-6.6604 5.0235,-9.0308 z"
     fill="#99a3ff"
     id="path16" />
</svg>
