<svg width="87" height="21" viewBox="0 0 87 21" fill="none" xmlns="http://www.w3.org/2000/svg">
<path d="M0.161 0.694999H9.044C10.286 0.694999 11.357 0.847999 12.257 1.154C13.157 1.46 13.922 1.901 14.552 2.477C15.236 3.089 15.767 3.827 16.145 4.691C16.523 5.537 16.712 6.5 16.712 7.58C16.712 8.516 16.55 9.38 16.226 10.172C15.902 10.964 15.443 11.657 14.849 12.251C14.255 12.827 13.553 13.286 12.743 13.628C11.933 13.952 11.042 14.114 10.07 14.114H5.804V20H0.161V0.694999ZM5.804 9.74H8.855C9.539 9.74 10.079 9.533 10.475 9.119C10.889 8.705 11.096 8.165 11.096 7.499C11.096 6.851 10.898 6.338 10.502 5.96C10.106 5.564 9.539 5.366 8.801 5.366H5.804V9.74ZM24.3661 20.432C23.2141 20.432 22.1701 20.252 21.2341 19.892C20.3161 19.514 19.5241 19.001 18.8581 18.353C18.2101 17.705 17.7061 16.94 17.3461 16.058C16.9861 15.158 16.8061 14.186 16.8061 13.142C16.8061 12.098 16.9861 11.135 17.3461 10.253C17.7061 9.353 18.2101 8.579 18.8581 7.931C19.5241 7.265 20.3161 6.752 21.2341 6.392C22.1701 6.014 23.2141 5.825 24.3661 5.825C25.5181 5.825 26.5531 6.014 27.4711 6.392C28.4071 6.752 29.1991 7.265 29.8471 7.931C30.4951 8.579 30.9901 9.353 31.3321 10.253C31.6921 11.135 31.8721 12.098 31.8721 13.142C31.8721 14.186 31.6921 15.158 31.3321 16.058C30.9901 16.94 30.4951 17.705 29.8471 18.353C29.1991 19.001 28.4071 19.514 27.4711 19.892C26.5531 20.252 25.5181 20.432 24.3661 20.432ZM24.3121 17.03C25.1041 17.03 25.6981 16.679 26.0941 15.977C26.4901 15.257 26.6881 14.312 26.6881 13.142C26.6881 11.972 26.4901 11.036 26.0941 10.334C25.6981 9.614 25.1041 9.254 24.3121 9.254C23.5201 9.254 22.9351 9.614 22.5571 10.334C22.1791 11.036 21.9901 11.972 21.9901 13.142C21.9901 14.312 22.1791 15.257 22.5571 15.977C22.9351 16.679 23.5201 17.03 24.3121 17.03ZM33.1407 0.694999H38.3787V20H33.1407V0.694999ZM48.8471 20C48.7571 19.838 48.6671 19.64 48.5771 19.406C48.5051 19.172 48.4421 18.866 48.3881 18.488H48.3341C47.8661 19.118 47.2811 19.586 46.5791 19.892C45.8771 20.198 45.0761 20.351 44.1761 20.351C43.5101 20.351 42.8981 20.261 42.3401 20.081C41.7821 19.901 41.2961 19.64 40.8821 19.298C40.4861 18.956 40.1711 18.533 39.9371 18.029C39.7031 17.507 39.5861 16.904 39.5861 16.22C39.5861 15.464 39.7211 14.834 39.9911 14.33C40.2611 13.808 40.6211 13.385 41.0711 13.061C41.5391 12.737 42.0701 12.494 42.6641 12.332C43.2761 12.17 43.9151 12.053 44.5811 11.981C45.3011 11.909 45.8951 11.828 46.3631 11.738C46.8491 11.648 47.2361 11.54 47.5241 11.414C47.8121 11.288 48.0101 11.153 48.1181 11.009C48.2261 10.847 48.2801 10.658 48.2801 10.442C48.2801 10.064 48.1721 9.749 47.9561 9.497C47.7581 9.245 47.3801 9.119 46.8221 9.119C46.2641 9.119 45.8411 9.272 45.5531 9.578C45.2651 9.866 45.0851 10.262 45.0131 10.766H40.1801C40.1981 10.082 40.3421 9.443 40.6121 8.849C40.9001 8.237 41.3141 7.706 41.8541 7.256C42.3941 6.806 43.0691 6.455 43.8791 6.203C44.6891 5.933 45.6341 5.798 46.7141 5.798C47.7761 5.798 48.6581 5.87 49.3601 6.014C50.0801 6.158 50.7011 6.392 51.2231 6.716C52.6451 7.598 53.3561 8.975 53.3561 10.847V17.732C53.3561 18.308 53.3831 18.758 53.4371 19.082C53.5091 19.406 53.6531 19.64 53.8691 19.784V20H48.8471ZM46.0931 17.327C46.6871 17.327 47.2181 17.147 47.6861 16.787C48.1721 16.427 48.4151 15.833 48.4151 15.005V13.79C48.1631 13.916 47.8751 14.033 47.5511 14.141C47.2451 14.249 46.8761 14.348 46.4441 14.438C45.6881 14.6 45.1751 14.798 44.9051 15.032C44.6351 15.266 44.5001 15.59 44.5001 16.004C44.5001 16.472 44.6621 16.814 44.9861 17.03C45.3101 17.228 45.6791 17.327 46.0931 17.327ZM60.1491 8.309H60.2301C60.7881 7.445 61.4001 6.833 62.0661 6.473C62.7501 6.113 63.5331 5.933 64.4151 5.933C64.7931 5.933 65.0721 5.978 65.2521 6.068V10.415H65.1441C63.6321 10.163 62.4621 10.37 61.6341 11.036C60.8061 11.684 60.3921 12.791 60.3921 14.357V20H55.2891V6.23H60.1491V8.309ZM66.4688 6.23H71.5718V20H66.4688V6.23ZM66.4688 0.694999H71.5718V4.556H66.4688V0.694999ZM79.5324 20.459C78.5064 20.459 77.5704 20.351 76.7244 20.135C75.8784 19.919 75.1494 19.604 74.5374 19.19C73.9254 18.776 73.4484 18.263 73.1064 17.651C72.7644 17.039 72.5934 16.337 72.5934 15.545H77.4804C77.5164 16.121 77.7054 16.571 78.0474 16.895C78.4074 17.201 78.9114 17.354 79.5594 17.354C80.0634 17.354 80.4774 17.264 80.8014 17.084C81.1434 16.886 81.3144 16.58 81.3144 16.166C81.3144 15.878 81.2154 15.653 81.0174 15.491C80.8374 15.311 80.5944 15.176 80.2884 15.086C79.9824 14.978 79.6224 14.897 79.2084 14.843C78.8124 14.771 78.3894 14.699 77.9394 14.627C77.3634 14.537 76.7784 14.42 76.1844 14.276C75.5904 14.132 75.0504 13.907 74.5644 13.601C74.0964 13.277 73.7094 12.845 73.4034 12.305C73.0974 11.765 72.9444 11.063 72.9444 10.199C72.9444 9.497 73.1064 8.876 73.4304 8.336C73.7724 7.778 74.2314 7.31 74.8074 6.932C75.3834 6.554 76.0494 6.275 76.8054 6.095C77.5614 5.897 78.3624 5.798 79.2084 5.798C81.3144 5.798 82.9074 6.176 83.9874 6.932C85.0854 7.67 85.6794 8.714 85.7694 10.064H80.9634C80.8914 9.542 80.6844 9.209 80.3424 9.065C80.0184 8.903 79.6494 8.822 79.2354 8.822C78.8574 8.822 78.5154 8.903 78.2094 9.065C77.9214 9.209 77.7774 9.461 77.7774 9.821C77.7774 10.019 77.8494 10.181 77.9934 10.307C78.1374 10.433 78.3354 10.541 78.5874 10.631C78.8574 10.703 79.1634 10.766 79.5054 10.82C79.8474 10.874 80.2164 10.928 80.6124 10.982C81.2424 11.072 81.8904 11.189 82.5564 11.333C83.2404 11.477 83.8524 11.72 84.3924 12.062C84.9504 12.386 85.4094 12.845 85.7694 13.439C86.1294 14.015 86.3094 14.78 86.3094 15.734C86.3094 16.562 86.1294 17.273 85.7694 17.867C85.4274 18.461 84.9504 18.956 84.3384 19.352C83.7264 19.73 83.0064 20.009 82.1784 20.189C81.3504 20.369 80.4684 20.459 79.5324 20.459Z" fill="#99A3FF"/>
</svg>
